<?xml version="1.0" standalone="no"?>
<!DOCTYPE svg PUBLIC "-//W3C//DTD SVG 20010904//EN"
 "http://www.w3.org/TR/2001/REC-SVG-20010904/DTD/svg10.dtd">
<svg version="1.0" xmlns="http://www.w3.org/2000/svg"
 width="1209.000000pt" height="954.000000pt" viewBox="0 0 1209.000000 954.000000"
 preserveAspectRatio="xMidYMid meet">

<g transform="translate(0.000000,954.000000) scale(0.100000,-0.100000)"
fill="#000000" stroke="none">
<path d="M0 4770 l0 -4770 6045 0 6045 0 0 4770 0 4770 -6045 0 -6045 0 0
-4770z m6100 4122 c312 -179 495 -283 1050 -600 256 -145 480 -279 499 -297
28 -28 34 -41 35 -78 2 -71 -21 -94 -189 -195 l-55 -33 0 -652 c0 -682 -3
-725 -45 -807 -25 -47 -76 -101 -131 -136 -105 -67 -36 -64 -1455 -64 -1383 0
-1328 -2 -1434 53 -81 41 -140 115 -179 222 -7 20 -12 258 -16 709 l-5 680
-90 52 c-49 28 -102 63 -116 77 -50 49 -44 133 12 183 13 12 188 115 389 229
201 114 590 336 865 493 275 157 516 291 535 298 19 7 48 10 65 6 16 -3 136
-66 265 -140z m-3135 -1883 c110 -28 195 -79 287 -171 82 -82 119 -144 159
-263 23 -69 23 -80 27 -561 l3 -491 220 -219 220 -219 20 25 c95 118 184 170
304 178 43 3 88 -1 111 -8 113 -36 117 -40 580 -503 470 -472 466 -467 521
-607 15 -40 18 -105 23 -590 l5 -545 81 -5 c50 -4 89 -11 100 -20 29 -23 53
-54 54 -67 0 -10 -230 -13 -1120 -13 -907 0 -1120 2 -1120 13 0 7 13 28 28 47
28 33 31 34 120 38 l92 4 0 169 0 169 -485 725 c-268 399 -493 741 -500 760
-12 27 -15 91 -15 307 0 253 1 275 20 305 35 58 101 78 164 48 63 -30 66 -46
66 -320 l0 -247 388 -581 c214 -320 434 -649 489 -732 55 -82 106 -161 114
-175 10 -18 15 -80 19 -225 l5 -200 618 -3 617 -2 0 527 c0 510 -1 530 -21
573 -15 34 -124 149 -427 453 -224 225 -420 418 -435 429 -54 39 -150 17 -176
-39 -6 -13 -11 -45 -11 -70 l0 -47 315 -316 c234 -235 318 -325 325 -350 23
-79 -37 -160 -118 -160 -32 0 -51 8 -89 39 -41 33 -1349 1337 -1355 1351 -1 3
-5 246 -8 540 l-5 535 -31 65 c-41 87 -150 190 -201 190 -9 0 -13 -52 -15
-201 l-3 -201 -33 -29 c-27 -24 -41 -29 -85 -29 -45 0 -57 4 -79 28 -47 50
-48 57 -48 342 0 294 2 307 56 349 35 28 124 28 229 0z m5920 -1 c57 -45 55 0
55 -1111 l0 -1024 -53 -84 c-29 -46 -255 -385 -500 -754 l-447 -670 2 -165 3
-165 80 -5 c54 -4 89 -12 108 -24 28 -19 47 -45 47 -65 0 -15 -2226 -15 -2235
-1 -3 5 10 26 28 47 34 36 37 37 118 43 l84 5 5 540 c6 614 4 599 93 732 53
79 872 901 924 927 115 58 237 67 340 24 74 -30 109 -58 154 -120 19 -26 38
-47 44 -48 5 0 108 98 227 217 l218 218 0 432 c0 432 6 542 37 638 72 226 246
376 498 429 11 2 48 4 81 5 49 1 67 -3 89 -21z m-5983 -1019 c45 -54 37 -142
-18 -182 -107 -79 -255 49 -188 162 27 46 62 62 123 58 48 -3 58 -8 83 -38z
m-731 -3794 c63 -22 109 -62 133 -114 30 -67 30 -228 -2 -287 -50 -97 -123
-124 -336 -124 l-145 0 -3 -82 -3 -83 -95 0 -95 0 -3 334 c-1 184 1 338 6 343
18 18 105 26 298 27 157 1 211 -2 245 -14z m6450 -6 c80 -26 92 -33 139 -76
71 -64 105 -216 81 -358 -26 -151 -106 -229 -269 -264 -110 -23 -456 -7 -474
22 -12 18 -10 665 2 672 25 16 110 23 276 24 159 1 189 -2 245 -20z m1953 5
c62 -21 121 -78 135 -129 14 -51 14 -149 0 -199 -6 -21 -30 -60 -54 -85 l-44
-47 60 -93 c36 -56 59 -102 57 -115 -3 -20 -9 -21 -98 -21 l-94 0 -62 106 -63
106 -98 6 c-53 4 -101 3 -105 -1 -4 -4 -9 -53 -11 -107 l-3 -100 -73 -8 c-41
-4 -80 -6 -87 -3 -15 6 -10 96 8 158 8 29 7 46 -6 85 -20 58 -32 257 -22 365
l8 76 46 10 c26 5 140 10 253 11 166 1 215 -2 253 -15z m-7566 -71 c17 -38 80
-171 139 -298 167 -352 164 -327 37 -323 l-86 3 -27 65 -28 65 -171 3 -171 2
-27 -42 c-15 -24 -34 -48 -43 -55 -13 -9 -108 -26 -138 -24 -21 1 -8 40 62
192 90 192 109 235 142 309 57 126 66 146 75 158 7 8 42 12 108 12 l97 0 31
-67z m1082 -7 c0 -88 5 -86 -152 -86 l-108 0 0 -249 c0 -137 -3 -256 -6 -265
-5 -13 -24 -16 -100 -16 l-94 0 0 265 0 265 -52 2 c-29 1 -81 1 -115 0 -91 -4
-103 5 -103 82 0 34 3 66 7 69 3 4 168 7 365 7 l358 0 0 -74z m428 -64 l3
-132 167 2 167 3 3 133 3 132 94 0 95 0 1 -132 c1 -73 3 -221 4 -328 2 -107 1
-203 -2 -213 -4 -16 -15 -17 -96 -15 l-92 3 -5 125 -5 125 -165 0 -165 0 -5
-125 -5 -125 -95 0 -95 0 -3 343 -2 343 97 -3 98 -3 3 -133z m1870 65 c3 -64
2 -68 -23 -77 -15 -6 -121 -10 -236 -10 l-209 0 0 -55 0 -55 178 -2 177 -3 3
-77 3 -78 -180 0 -180 0 -3 -127 -3 -128 -95 0 -95 0 -3 343 -2 342 332 -2
333 -3 3 -68z m440 -252 c1 -176 0 -330 -3 -343 -5 -22 -9 -23 -98 -20 l-92 3
-3 343 -2 343 97 -3 98 -3 3 -320z m624 125 c87 -107 163 -196 168 -198 6 -2
10 68 10 198 l0 201 98 -3 97 -3 3 -320 c1 -176 0 -330 -3 -342 -5 -22 -10
-23 -99 -23 l-94 0 -70 88 c-39 48 -112 138 -162 200 -50 61 -95 112 -100 112
-6 0 -11 -81 -12 -197 l-3 -198 -95 0 -95 0 -3 343 -2 343 102 -3 103 -3 157
-195z m2316 124 c3 -67 1 -72 -20 -78 -13 -3 -119 -6 -235 -6 l-213 0 0 -55 0
-55 173 0 c121 0 177 -4 185 -12 13 -13 16 -116 4 -135 -6 -9 -58 -13 -182
-15 l-175 -3 0 -45 0 -45 230 -5 230 -5 0 -75 0 -75 -330 0 -330 0 -3 330 c-1
181 0 336 3 343 3 10 74 12 332 10 l328 -3 3 -71z m-2230 -1226 c7 -7 12 -22
12 -34 0 -55 79 -51 -1361 -52 -870 -1 -1338 2 -1350 9 -19 10 -25 43 -13 73
6 14 134 16 1353 16 1034 0 1350 -3 1359 -12z"/>
<path d="M5750 8729 c-30 -17 -84 -48 -120 -69 -36 -21 -83 -48 -105 -60 -22
-12 -168 -95 -325 -185 -264 -150 -467 -266 -565 -321 -189 -106 -299 -172
-302 -181 -2 -6 33 -32 79 -58 46 -26 103 -59 128 -73 25 -14 214 -122 420
-240 206 -118 395 -226 420 -240 25 -14 78 -45 118 -69 41 -24 75 -43 77 -43
2 0 48 -26 102 -58 54 -32 107 -61 117 -65 17 -7 81 25 315 158 20 11 98 56
174 99 114 65 136 81 125 91 -7 7 -157 95 -333 195 -179 101 -334 197 -352
215 -57 60 -56 114 3 173 33 33 37 34 92 30 50 -4 78 -17 241 -112 101 -58
185 -106 187 -106 1 0 35 -19 76 -43 40 -24 93 -55 118 -69 25 -14 85 -48 133
-76 49 -28 96 -53 105 -56 19 -6 16 -8 362 192 135 77 245 146 245 153 0 6
-137 89 -305 185 -168 95 -312 177 -320 182 -28 16 -525 300 -560 319 -19 11
-92 52 -161 92 -70 39 -128 71 -130 71 -2 0 -29 -14 -59 -31z"/>
<path d="M4440 6945 l0 -584 35 -36 36 -35 177 -1 c97 -1 681 0 1297 1 988 2
1122 4 1143 18 53 34 52 26 52 647 0 421 -3 575 -11 575 -20 0 -349 -191 -350
-203 0 -7 0 -111 1 -233 1 -245 -6 -297 -50 -339 -39 -37 -103 -44 -148 -15
-54 34 -62 67 -62 266 0 164 -1 176 -17 169 -10 -3 -106 -56 -213 -118 -448
-256 -473 -269 -515 -269 -49 -1 -47 -3 -467 239 -189 108 -390 223 -448 256
-58 33 -125 71 -150 85 -25 14 -58 33 -75 42 -16 10 -70 40 -119 69 -49 28
-95 51 -102 51 -12 0 -14 -99 -14 -585z"/>
<path d="M8633 6732 c-77 -42 -139 -120 -173 -216 -19 -56 -20 -83 -20 -557 0
-322 -4 -508 -10 -526 -12 -32 -1340 -1366 -1382 -1389 -40 -21 -91 -17 -124
8 -46 36 -53 50 -54 107 l0 54 320 322 320 321 0 56 c0 51 -3 58 -35 87 -30
26 -44 31 -87 31 l-52 0 -423 -422 c-341 -340 -429 -433 -448 -475 l-25 -52 2
-523 3 -523 618 -3 617 -2 1 157 c1 279 -55 167 507 1010 l492 738 0 908 c0
499 -3 907 -7 907 -5 -1 -22 -9 -40 -18z"/>
<path d="M1850 2041 c-24 -7 -25 -10 -28 -98 -3 -105 -8 -100 103 -110 88 -7
169 10 190 40 18 26 19 116 1 139 -7 10 -25 22 -40 28 -30 11 -186 12 -226 1z"/>
<path d="M8290 1862 c0 -105 3 -197 6 -206 13 -33 235 -12 295 27 14 10 31 29
37 43 18 37 15 218 -3 253 -23 45 -82 64 -217 69 l-118 4 0 -190z"/>
<path d="M10240 2041 c-23 -6 -25 -12 -28 -68 -4 -80 7 -87 143 -88 136 0 159
11 163 83 3 52 3 53 -32 67 -37 16 -198 19 -246 6z"/>
<path d="M2863 1988 c-13 -16 -73 -163 -73 -177 0 -7 33 -11 90 -11 l90 0 -19
48 c-39 99 -64 152 -71 152 -4 0 -12 -6 -17 -12z"/>
</g>
</svg>
